<?xml version="1.0" encoding="UTF-8"?>
<svg version="1.1" viewBox="0 0 2048 1324" width="1280" height="1280" xmlns="http://www.w3.org/2000/svg">
<path transform="translate(0)" d="m0 0h2048v1324h-2048z" fill="#DCDCDC"/>
<path transform="translate(1563,42)" d="m0 0 11 1 18 4 42 14 43 14 32 10 8 2 29 1 15 8 11 14 8 23 9 10 20 20 11 9 13 12 8 7 20 20 1 4-1 4h7l1 1v8l6 2 11 6 12 14 9 11 10 11 9 11 10 10 10 8 7 8 5 10-1 15-3 19-7 17-9 10-7 6-41 8-5-2-14-8-10-9-8-6-13-5-56-1-28-10-13-7-10-6-17-3h-8l-34 16-5 2h-9l-2 16-5 32-8 16-10 19-16 42-12 25-4 8-1 206-3 24v45l6 21 12 39 7 30 6 35 4 24 8 23 10 17 9 30 8 29 10 47 8 16 10 16 12 21 14 25 14 21 13 25 13 15 9 10 9 7 3 2-3 14-3 3-30 10h-8l-30-7-15-15-14-39-25-50-13-30-22-44-12-22-13-25-8-16-21-56-12-23-12-21-36-42-9-11-12-8-23-3-43-5 2 13 2 18-1 12-10 62-7 25-6 23-7 40-15 12-17 13-18 14-56 31-10 5-32 11-54 27-18 13-7 5-9-1-8-2-2-9-2-14v-8l7-30 1-2 41-14 47-18 56-21 12-7 14-10 10-9 2-10 2-17 1-30 2-15 1-8-12-13-9-11-6-8-10-31-3-16-5-35v-5h-20l-82-2-38-2-57-7-22-8-28-11-70-35-23-13-11-4-24-6-47-1-4 23-11 54-11 38-2 28-2 39v66l7 25 6 10 14 20 16 24 12 19 12 18 32 46 28 42 13 16 11 14 10 12-1 11-3 6-8 4-27 11-7-1-11-6-7-9-9-14-5-20-8-12-32-46-14-20-12-23-12-22-8-12-28-36-13-16-8-10-10-9-13-10-27-14-4-3-3-24-1-14-1-47-6-34v-4l-20 5-17 9-17 10-46 26-29 14-31 14-43 11-4 1-2 4-12 16-18 49-8 22-7 40-5 45-7 9-12 14-14 18-12 17-9 12-7 7-8 7-11 10-8 7-3 1h-13l-2-1-7-32 1-6 15-31 11-24 18-52 11-30 19-45 10-25 16-50 21-68 5-8 9-8 15-8 23-11 60-30 3-1 2-4 11-14 2-9 2-17v-12l-15-38-19-43-13-28-2-4-11 2-6 3-25 25-20 26-9 11-11 9-10 8-11 4h-29l-28-11-24-11-19-9-55-15-25-12-14-7-25-4-6 1-11 6h-91l-10-13-1-2v-12l9-4 22-7h3l-4-16-45-11-30-15-2-2v-8l-6-2-10-5-13-16-3-8-2-12v-10l3-8 9 3 29 11 11 4h74l59-10 11-4 27-14 24-15 18-11 8-4 29-8 8-2h58l16 2 23 1h24l19-2 60-10 22-7 29-4 33-4 8-4 31-21 30-20 10-4 46-13 56-11h25l100 3 57 5 21 2 24 1 159 3h41l30-9 6-1v-11l-17-3h-10l-27 6h-44l-6-4 6-16 7-11 26-36 14-17 6-4 21-9 25-1 6-6 9-1h3l4-18 5-3 16-5h7l11 3 8-9 8-10 5-5 13-3-1-15-1-9v-13l7-13 23-4 7 1 4 2 1-11 19-12 11-29 5-4 9-2 113-7h9l-8-19-11-12 3-10z"/>
</svg>
